<svg xmlns="http://www.w3.org/2000/svg" viewBox="0 0 572.15 100.00" width="572" height="100" role="img" aria-label="Play Before Pixels"><title>Play Before Pixels</title><g><path d="M0,50 A50,50 0 1 1 50,100 H38 V62 H0 Z M63.424,13.117 A39.25,39.25 0 0 1 84.972,32.181 A3.25,3.25 0 0 1 79.180,35.132 A32.75,32.75 0 0 0 61.201,19.225 A3.25,3.25 0 0 1 63.424,13.117 Z" fill="#EE5A36" fill-rule="evenodd"/><path d="M0,69 H31 V100 H0 Z" fill="#FFFFFF"/></g><path transform="translate(126.00,69.00) scale(0.05758)" d="M161 -187V-317H284Q345 -317 375.0 -341.5Q405 -366 405 -423Q405 -477 377.5 -503.5Q350 -530 294 -530H161V-660H303Q360 -660 409.0 -646.5Q458 -633 494.5 -604.0Q531 -575 551.5 -531.0Q572 -487 572 -425Q572 -346 536.5 -293.0Q501 -240 434.0 -213.5Q367 -187 270 -187ZM40 0V-660H202V0ZM612.0 0V-700H774.0V0ZM975.0 14Q935.0 14 899.0 0.0Q863.0 -14 840.0 -45.5Q817.0 -77 817.0 -130Q817.0 -179 836.0 -209.5Q855.0 -240 887.0 -258.5Q919.0 -277 957.0 -286.5Q995.0 -296 1032.0 -303Q1084.0 -313 1110.0 -319.0Q1136.0 -325 1145.5 -333.0Q1155.0 -341 1155.0 -355Q1155.0 -384 1133.5 -399.0Q1112.0 -414 1077.0 -414Q1055.0 -414 1033.0 -406.0Q1011.0 -398 997.0 -377.5Q983.0 -357 984.0 -319L840.0 -329Q838.0 -392 859.0 -433.5Q880.0 -475 916.5 -498.5Q953.0 -522 996.5 -532.0Q1040.0 -542 1083.0 -542Q1162.0 -542 1213.0 -512.5Q1264.0 -483 1288.5 -427.5Q1313.0 -372 1313.0 -293V-199Q1313.0 -166 1313.0 -132.5Q1313.0 -99 1313.0 -66.0Q1313.0 -33 1313.0 0H1173.0Q1173.0 -36 1173.0 -73.0Q1173.0 -110 1173.0 -151H1167.0Q1163.0 -106 1137.5 -68.5Q1112.0 -31 1070.5 -8.5Q1029.0 14 975.0 14ZM1042.0 -104Q1059.0 -104 1078.5 -110.5Q1098.0 -117 1115.5 -132.0Q1133.0 -147 1144.0 -173.5Q1155.0 -200 1155.0 -239V-263L1182.0 -266Q1174.0 -253 1155.5 -245.0Q1137.0 -237 1114.0 -232.5Q1091.0 -228 1067.5 -223.5Q1044.0 -219 1024.0 -211.5Q1004.0 -204 991.5 -191.5Q979.0 -179 979.0 -157Q979.0 -131 997.5 -117.5Q1016.0 -104 1042.0 -104ZM1558.0 156Q1528.0 156 1492.0 151.0Q1456.0 146 1420.0 135.0Q1384.0 124 1353.0 107L1390.0 -56Q1426.0 -22 1470.5 -8.0Q1515.0 6 1550.0 6Q1599.0 6 1632.5 -13.5Q1666.0 -33 1683.0 -70.5Q1700.0 -108 1700.0 -162V-254H1691.0Q1689.0 -184 1668.5 -139.5Q1648.0 -95 1613.0 -74.0Q1578.0 -53 1532.0 -53Q1475.0 -53 1437.5 -82.0Q1400.0 -111 1381.0 -169.0Q1362.0 -227 1362.0 -314V-528H1523.0V-356Q1523.0 -271 1541.0 -232.0Q1559.0 -193 1598.0 -193Q1618.0 -193 1633.5 -203.5Q1649.0 -214 1659.0 -235.5Q1669.0 -257 1674.0 -289.5Q1679.0 -322 1679.0 -365V-528H1840.0V-156Q1840.0 -102 1829.0 -54.5Q1818.0 -7 1796.0 31.5Q1774.0 70 1740.5 98.0Q1707.0 126 1661.5 141.0Q1616.0 156 1558.0 156ZM2095.0 0V-660H2361.0Q2422.0 -660 2469.5 -649.0Q2517.0 -638 2550.5 -616.5Q2584.0 -595 2601.5 -563.0Q2619.0 -531 2619.0 -488Q2619.0 -448 2602.5 -416.0Q2586.0 -384 2549.5 -364.5Q2513.0 -345 2454.0 -340V-331Q2555.0 -326 2600.5 -284.0Q2646.0 -242 2646.0 -173Q2646.0 -115 2616.0 -77.0Q2586.0 -39 2528.5 -19.5Q2471.0 0 2386.0 0ZM2257.0 -130H2379.0Q2430.0 -130 2458.0 -148.5Q2486.0 -167 2486.0 -201Q2486.0 -239 2454.5 -257.5Q2423.0 -276 2360.0 -276H2257.0ZM2257.0 -386H2344.0Q2401.0 -386 2431.0 -405.0Q2461.0 -424 2461.0 -461Q2461.0 -496 2434.0 -513.5Q2407.0 -531 2353.0 -531H2257.0ZM2940.0 14Q2865.0 14 2814.5 -7.5Q2764.0 -29 2733.0 -66.5Q2702.0 -104 2688.5 -152.0Q2675.0 -200 2675.0 -253Q2675.0 -310 2689.5 -362.0Q2704.0 -414 2734.5 -454.5Q2765.0 -495 2813.5 -518.5Q2862.0 -542 2930.0 -542Q2998.0 -542 3046.5 -518.5Q3095.0 -495 3124.0 -453.0Q3153.0 -411 3161.5 -356.0Q3170.0 -301 3159.0 -237L2776.0 -231V-319L3035.0 -324L3014.0 -273Q3020.0 -319 3012.5 -350.5Q3005.0 -382 2985.0 -398.5Q2965.0 -415 2930.0 -415Q2893.0 -415 2871.0 -396.0Q2849.0 -377 2840.0 -342.5Q2831.0 -308 2831.0 -261Q2831.0 -180 2858.0 -143.0Q2885.0 -106 2941.0 -106Q2965.0 -106 2981.0 -112.0Q2997.0 -118 3007.0 -129.5Q3017.0 -141 3021.0 -157.5Q3025.0 -174 3024.0 -195L3172.0 -187Q3175.0 -154 3165.5 -119.0Q3156.0 -84 3130.0 -54.0Q3104.0 -24 3057.5 -5.0Q3011.0 14 2940.0 14ZM3264.0 0V-323H3191.0V-439L3352.0 -428V-436Q3291.0 -443 3260.0 -465.0Q3229.0 -487 3218.5 -515.0Q3208.0 -543 3208.0 -566Q3208.0 -611 3232.5 -644.5Q3257.0 -678 3300.5 -696.0Q3344.0 -714 3399.0 -714Q3444.0 -714 3479.5 -702.0Q3515.0 -690 3544.0 -667L3531.0 -519Q3504.0 -538 3479.0 -547.5Q3454.0 -557 3428.0 -557Q3398.0 -557 3378.5 -544.0Q3359.0 -531 3359.0 -503Q3359.0 -488 3367.0 -475.0Q3375.0 -462 3392.5 -454.5Q3410.0 -447 3440.0 -447H3540.0V-323H3424.0V0ZM3821.0 14Q3745.0 14 3686.0 -16.5Q3627.0 -47 3594.0 -108.5Q3561.0 -170 3561.0 -263Q3561.0 -360 3595.5 -421.5Q3630.0 -483 3689.5 -512.5Q3749.0 -542 3824.0 -542Q3902.0 -542 3960.5 -511.5Q4019.0 -481 4051.5 -419.5Q4084.0 -358 4084.0 -264Q4084.0 -167 4049.5 -105.5Q4015.0 -44 3955.5 -15.0Q3896.0 14 3821.0 14ZM3825.0 -105Q3856.0 -105 3877.0 -122.5Q3898.0 -140 3909.0 -174.0Q3920.0 -208 3920.0 -255Q3920.0 -307 3908.0 -342.5Q3896.0 -378 3873.5 -397.0Q3851.0 -416 3819.0 -416Q3789.0 -416 3768.0 -398.5Q3747.0 -381 3736.0 -347.0Q3725.0 -313 3725.0 -265Q3725.0 -189 3751.5 -147.0Q3778.0 -105 3825.0 -105ZM4132.0 0V-287V-528H4272.0V-318H4280.0Q4286.0 -402 4303.5 -450.5Q4321.0 -499 4347.5 -519.5Q4374.0 -540 4407.0 -540Q4425.0 -540 4444.5 -535.0Q4464.0 -530 4483.0 -519L4475.0 -339Q4453.0 -352 4432.0 -358.5Q4411.0 -365 4392.0 -365Q4360.0 -365 4338.0 -347.0Q4316.0 -329 4304.5 -294.0Q4293.0 -259 4293.0 -209V0ZM4761.0 14Q4686.0 14 4635.5 -7.5Q4585.0 -29 4554.0 -66.5Q4523.0 -104 4509.5 -152.0Q4496.0 -200 4496.0 -253Q4496.0 -310 4510.5 -362.0Q4525.0 -414 4555.5 -454.5Q4586.0 -495 4634.5 -518.5Q4683.0 -542 4751.0 -542Q4819.0 -542 4867.5 -518.5Q4916.0 -495 4945.0 -453.0Q4974.0 -411 4982.5 -356.0Q4991.0 -301 4980.0 -237L4597.0 -231V-319L4856.0 -324L4835.0 -273Q4841.0 -319 4833.5 -350.5Q4826.0 -382 4806.0 -398.5Q4786.0 -415 4751.0 -415Q4714.0 -415 4692.0 -396.0Q4670.0 -377 4661.0 -342.5Q4652.0 -308 4652.0 -261Q4652.0 -180 4679.0 -143.0Q4706.0 -106 4762.0 -106Q4786.0 -106 4802.0 -112.0Q4818.0 -118 4828.0 -129.5Q4838.0 -141 4842.0 -157.5Q4846.0 -174 4845.0 -195L4993.0 -187Q4996.0 -154 4986.5 -119.0Q4977.0 -84 4951.0 -54.0Q4925.0 -24 4878.5 -5.0Q4832.0 14 4761.0 14ZM5355.0 -187V-317H5478.0Q5539.0 -317 5569.0 -341.5Q5599.0 -366 5599.0 -423Q5599.0 -477 5571.5 -503.5Q5544.0 -530 5488.0 -530H5355.0V-660H5497.0Q5554.0 -660 5603.0 -646.5Q5652.0 -633 5688.5 -604.0Q5725.0 -575 5745.5 -531.0Q5766.0 -487 5766.0 -425Q5766.0 -346 5730.5 -293.0Q5695.0 -240 5628.0 -213.5Q5561.0 -187 5464.0 -187ZM5234.0 0V-660H5396.0V0ZM5806.0 0V-528H5968.0V0ZM5886.0 -566Q5840.0 -566 5815.5 -585.5Q5791.0 -605 5791.0 -642Q5791.0 -680 5815.5 -699.5Q5840.0 -719 5886.0 -719Q5933.0 -719 5957.5 -699.0Q5982.0 -679 5982.0 -642Q5982.0 -606 5957.5 -586.0Q5933.0 -566 5886.0 -566ZM5998.0 0 6164.0 -265 6000.0 -528H6188.0L6265.0 -357H6270.0L6345.0 -528H6531.0L6372.0 -265L6533.0 0H6342.0L6269.0 -168H6265.0L6184.0 0ZM6766.0 14Q6691.0 14 6640.5 -7.5Q6590.0 -29 6559.0 -66.5Q6528.0 -104 6514.5 -152.0Q6501.0 -200 6501.0 -253Q6501.0 -310 6515.5 -362.0Q6530.0 -414 6560.5 -454.5Q6591.0 -495 6639.5 -518.5Q6688.0 -542 6756.0 -542Q6824.0 -542 6872.5 -518.5Q6921.0 -495 6950.0 -453.0Q6979.0 -411 6987.5 -356.0Q6996.0 -301 6985.0 -237L6602.0 -231V-319L6861.0 -324L6840.0 -273Q6846.0 -319 6838.5 -350.5Q6831.0 -382 6811.0 -398.5Q6791.0 -415 6756.0 -415Q6719.0 -415 6697.0 -396.0Q6675.0 -377 6666.0 -342.5Q6657.0 -308 6657.0 -261Q6657.0 -180 6684.0 -143.0Q6711.0 -106 6767.0 -106Q6791.0 -106 6807.0 -112.0Q6823.0 -118 6833.0 -129.5Q6843.0 -141 6847.0 -157.5Q6851.0 -174 6850.0 -195L6998.0 -187Q7001.0 -154 6991.5 -119.0Q6982.0 -84 6956.0 -54.0Q6930.0 -24 6883.5 -5.0Q6837.0 14 6766.0 14ZM7044.0 0V-700H7206.0V0ZM7499.0 14Q7446.0 14 7400.5 3.5Q7355.0 -7 7321.5 -30.0Q7288.0 -53 7270.5 -91.5Q7253.0 -130 7256.0 -185L7397.0 -197Q7399.0 -164 7412.0 -142.5Q7425.0 -121 7448.0 -111.0Q7471.0 -101 7504.0 -101Q7535.0 -101 7557.5 -111.5Q7580.0 -122 7580.0 -147Q7580.0 -160 7572.0 -168.5Q7564.0 -177 7542.5 -184.5Q7521.0 -192 7480.0 -202Q7429.0 -215 7388.0 -228.0Q7347.0 -241 7318.0 -259.0Q7289.0 -277 7274.0 -303.5Q7259.0 -330 7259.0 -369Q7259.0 -424 7288.5 -462.5Q7318.0 -501 7370.0 -521.5Q7422.0 -542 7490.0 -542Q7551.0 -542 7604.0 -523.0Q7657.0 -504 7687.5 -461.0Q7718.0 -418 7710.0 -347L7572.0 -334Q7575.0 -363 7564.0 -383.5Q7553.0 -404 7532.0 -414.5Q7511.0 -425 7481.0 -425Q7447.0 -425 7428.5 -412.5Q7410.0 -400 7410.0 -381Q7410.0 -366 7421.5 -355.5Q7433.0 -345 7457.5 -337.5Q7482.0 -330 7521.0 -321Q7555.0 -314 7592.0 -303.0Q7629.0 -292 7661.0 -273.5Q7693.0 -255 7713.0 -225.0Q7733.0 -195 7733.0 -149Q7733.0 -100 7706.0 -63.0Q7679.0 -26 7627.0 -6.0Q7575.0 14 7499.0 14Z" fill="#FFFFFF"/></svg>
