<svg xmlns="http://www.w3.org/2000/svg" viewBox="-496.64 -496.64 6456.27 7418.73" width="870" height="1000" role="img" aria-label="Play Before Pixels"><title>Play Before Pixels</title><rect x="-496.64" y="-496.64" width="6456.27" height="7418.73" fill="#1D2940"/><path class="a" fill="#FFFFFF" d="M2410.15 4439.05V2164.16A131.46 131.46 0 0 0 2271.1 2032.92A2410.15 2410.15 0 0 0 0 4439.05ZM1139.34 934.84A934.84 934.84 0 1 1 3009.03 934.84A934.84 934.84 0 1 1 1139.34 934.84ZM2328.06 1028.33A138.77 138.77 0 1 0 2605.59 1028.33A138.77 138.77 0 1 0 2328.06 1028.33Z"/><path class="c" fill="#3D86D8" d="M3841.63 4439.05V2954.95A131.46 131.46 0 0 1 3984.69 2824A1621.37 1621.37 0 0 1 5463 4439.05ZM3403.42 1969.83A701.13 701.13 0 1 1 4805.69 1969.83A701.13 701.13 0 1 1 3403.42 1969.83ZM3700.53 2039.94A109.55 109.55 0 1 0 3919.63 2039.94A109.55 109.55 0 1 0 3700.53 2039.94Z"/><path class="b" fill="#EE5A36" d="M2629.25 3942.42A496.64 496.64 0 1 1 3622.52 3942.42A496.64 496.64 0 1 1 2629.25 3942.42Z"/><path class="t" fill="#FFFFFF" d="M182 5326.25V5200.25H324Q388 5200.25 419.5 5173.75Q451 5147.25 451 5085.25Q451 5029.25 422 5001.25Q393 4973.25 331 4973.25H182V4848.25H337Q399 4848.25 450 4862.75Q501 4877.25 538 4906.75Q575 4936.25 594.5 4981.25Q614 5026.25 614 5088.25Q614 5166.25 578.5 5219.25Q543 5272.25 474 5299.25Q405 5326.25 303 5326.25ZM64 5508.25V4848.25H225V5508.25ZM684 5508.25V4792.25H843V5508.25ZM1078 5522.25Q1034 5522.25 1000 5505.75Q966 5489.25 946 5455.75Q926 5422.25 926 5373.25Q926 5327.25 944 5297.75Q962 5268.25 995 5250.75Q1028 5233.25 1073.5 5221.75Q1119 5210.25 1174 5202.25Q1208 5196.25 1229 5191.25Q1250 5186.25 1259.5 5176.75Q1269 5167.25 1269 5149.25Q1269 5123.25 1250.5 5106.25Q1232 5089.25 1193 5089.25Q1166 5089.25 1143.5 5098.75Q1121 5108.25 1105.5 5127.25Q1090 5146.25 1083 5176.25L941 5140.25Q952 5093.25 975 5060.75Q998 5028.25 1031.5 5006.75Q1065 4985.25 1107.5 4975.75Q1150 4966.25 1197 4966.25Q1277 4966.25 1327.5 4992.75Q1378 5019.25 1402.5 5073.25Q1427 5127.25 1427 5210.25V5293.25Q1427 5329.25 1428.5 5364.75Q1430 5400.25 1432 5436.25Q1434 5472.25 1437 5508.25H1295Q1292 5482.25 1289 5449.25Q1286 5416.25 1284 5381.25H1267Q1255 5420.25 1229 5452.75Q1203 5485.25 1164.5 5503.75Q1126 5522.25 1078 5522.25ZM1149 5407.25Q1167 5407.25 1186 5400.75Q1205 5394.25 1222 5382.25Q1239 5370.25 1252 5351.25Q1265 5332.25 1272 5308.25L1270 5240.25L1292 5244.25Q1276 5256.25 1254 5263.25Q1232 5270.25 1208.5 5274.25Q1185 5278.25 1162.5 5282.75Q1140 5287.25 1121.5 5294.75Q1103 5302.25 1092.5 5314.25Q1082 5326.25 1082 5347.25Q1082 5375.25 1101 5391.25Q1120 5407.25 1149 5407.25ZM1722 5651.45Q1684 5651.45 1643 5646.25Q1602 5641.05 1565 5630.25Q1528 5619.45 1500 5602.65L1538 5479.25Q1574 5512.25 1622.5 5524.65Q1671 5537.05 1715 5537.05Q1767 5537.05 1801.5 5520.15Q1836 5503.25 1854 5461.75Q1872 5420.25 1874 5359.25L1878 5271.25H1858Q1850 5337.25 1828 5378.75Q1806 5420.25 1771.5 5440.25Q1737 5460.25 1690 5460.25Q1632 5460.25 1593.5 5431.25Q1555 5402.25 1535.5 5343.75Q1516 5285.25 1516 5198.25V4980.25H1678V5157.25Q1678 5248.25 1696.5 5287.75Q1715 5327.25 1754 5327.25Q1775 5327.25 1791.5 5315.25Q1808 5303.25 1820 5281.75Q1832 5260.25 1838 5228.25Q1844 5196.25 1844 5156.25V4980.25H2005V5365.25Q2005 5426.25 1993.5 5475.25Q1982 5524.25 1959.5 5555.45Q1937 5586.65 1903.5 5608.25Q1870 5629.85 1824.5 5640.65Q1779 5651.45 1722 5651.45ZM2291 5508.25V4848.25H2571Q2633 4848.25 2682 4858.75Q2731 4869.25 2766 4890.75Q2801 4912.25 2819 4945.75Q2837 4979.25 2837 5024.25Q2837 5063.25 2820.5 5092.75Q2804 5122.25 2769 5140.75Q2734 5159.25 2675 5165.25V5180.25Q2773 5186.25 2818.5 5226.75Q2864 5267.25 2864 5335.25Q2864 5393.25 2833.5 5431.25Q2803 5469.25 2743.5 5488.75Q2684 5508.25 2596 5508.25ZM2445 5380.25H2590Q2649 5380.25 2678 5362.25Q2707 5344.25 2707 5307.25Q2707 5266.25 2672.5 5245.75Q2638 5225.25 2568 5225.25H2445ZM2445 5124.25H2547Q2615 5124.25 2647.5 5105.25Q2680 5086.25 2680 5047.25Q2680 5010.25 2650.5 4992.75Q2621 4975.25 2560 4975.25H2445ZM3201 5522.25Q3133 5522.25 3081.5 5503.75Q3030 5485.25 2994.5 5450.75Q2959 5416.25 2941 5366.75Q2923 5317.25 2923 5254.25Q2923 5193.25 2940.5 5140.25Q2958 5087.25 2992 5048.25Q3026 5009.25 3076 4987.75Q3126 4966.25 3190 4966.25Q3254 4966.25 3302.5 4987.25Q3351 5008.25 3382.5 5048.75Q3414 5089.25 3427.5 5146.25Q3441 5203.25 3435 5275.25L3028 5279.25V5194.25L3337 5190.25L3287 5232.25Q3294 5183.25 3282 5151.75Q3270 5120.25 3246 5105.25Q3222 5090.25 3192 5090.25Q3157 5090.25 3131 5109.25Q3105 5128.25 3091 5163.75Q3077 5199.25 3077 5250.25Q3077 5332.25 3111 5369.25Q3145 5406.25 3201 5406.25Q3227 5406.25 3244.5 5399.25Q3262 5392.25 3273 5380.75Q3284 5369.25 3290 5354.25Q3296 5339.25 3299 5325.25L3441 5351.25Q3435 5387.25 3419 5418.25Q3403 5449.25 3374.5 5472.75Q3346 5496.25 3303 5509.25Q3260 5522.25 3201 5522.25ZM3562 5508.25V5182.25H3483V5065.25L3631 5072.25V5055.25Q3588 5048.25 3562.5 5029.25Q3537 5010.25 3526 4984.75Q3515 4959.25 3515 4931.25Q3515 4887.25 3538 4855.25Q3561 4823.25 3603.5 4806.25Q3646 4789.25 3702 4789.25Q3750 4789.25 3789 4800.75Q3828 4812.25 3853 4830.25L3843 4976.25Q3818 4958.25 3788 4947.75Q3758 4937.25 3731 4937.25Q3702 4937.25 3683 4951.25Q3664 4965.25 3664 4997.25Q3664 5021.25 3675 5034.25Q3686 5047.25 3703 5052.25Q3720 5057.25 3739 5057.25H3852V5182.25H3720V5508.25ZM4162 5522.25Q4082 5522.25 4021 5491.25Q3960 5460.25 3925.5 5398.25Q3891 5336.25 3891 5243.25Q3891 5150.25 3926 5088.75Q3961 5027.25 4022.5 4996.75Q4084 4966.25 4162 4966.25Q4243 4966.25 4304 4997.25Q4365 5028.25 4399.5 5089.75Q4434 5151.25 4434 5244.25Q4434 5339.25 4398.5 5401.25Q4363 5463.25 4301 5492.75Q4239 5522.25 4162 5522.25ZM4167 5405.25Q4202 5405.25 4225 5388.25Q4248 5371.25 4260 5337.25Q4272 5303.25 4272 5254.25Q4272 5201.25 4259 5164.75Q4246 5128.25 4221.5 5109.25Q4197 5090.25 4158 5090.25Q4124 5090.25 4100.5 5106.75Q4077 5123.25 4065 5157.25Q4053 5191.25 4053 5241.25Q4053 5322.25 4083 5363.75Q4113 5405.25 4167 5405.25ZM4515 5508.25V5255.25V4980.25H4648L4650 5165.25H4669Q4675 5093.25 4694.5 5050.25Q4714 5007.25 4748 4987.75Q4782 4968.25 4833 4968.25Q4843 4968.25 4854.5 4969.75Q4866 4971.25 4880 4975.25L4874 5148.25Q4857 5140.25 4838 5136.75Q4819 5133.25 4803 5133.25Q4766 5133.25 4739 5148.75Q4712 5164.25 4696.5 5195.75Q4681 5227.25 4677 5275.25V5508.25ZM5194 5522.25Q5126 5522.25 5074.5 5503.75Q5023 5485.25 4987.5 5450.75Q4952 5416.25 4934 5366.75Q4916 5317.25 4916 5254.25Q4916 5193.25 4933.5 5140.25Q4951 5087.25 4985 5048.25Q5019 5009.25 5069 4987.75Q5119 4966.25 5183 4966.25Q5247 4966.25 5295.5 4987.25Q5344 5008.25 5375.5 5048.75Q5407 5089.25 5420.5 5146.25Q5434 5203.25 5428 5275.25L5021 5279.25V5194.25L5330 5190.25L5280 5232.25Q5287 5183.25 5275 5151.75Q5263 5120.25 5239 5105.25Q5215 5090.25 5185 5090.25Q5150 5090.25 5124 5109.25Q5098 5128.25 5084 5163.75Q5070 5199.25 5070 5250.25Q5070 5332.25 5104 5369.25Q5138 5406.25 5194 5406.25Q5220 5406.25 5237.5 5399.25Q5255 5392.25 5266 5380.75Q5277 5369.25 5283 5354.25Q5289 5339.25 5292 5325.25L5434 5351.25Q5428 5387.25 5412 5418.25Q5396 5449.25 5367.5 5472.75Q5339 5496.25 5296 5509.25Q5253 5522.25 5194 5522.25ZM1497.5 6203.45V6077.45H1639.5Q1703.5 6077.45 1735 6050.95Q1766.5 6024.45 1766.5 5962.45Q1766.5 5906.45 1737.5 5878.45Q1708.5 5850.45 1646.5 5850.45H1497.5V5725.45H1652.5Q1714.5 5725.45 1765.5 5739.95Q1816.5 5754.45 1853.5 5783.95Q1890.5 5813.45 1910 5858.45Q1929.5 5903.45 1929.5 5965.45Q1929.5 6043.45 1894 6096.45Q1858.5 6149.45 1789.5 6176.45Q1720.5 6203.45 1618.5 6203.45ZM1379.5 6385.45V5725.45H1540.5V6385.45ZM2009.5 6385.45V5857.45H2170.5V6385.45ZM2090.5 5790.45Q2044.5 5790.45 2020 5770.95Q1995.5 5751.45 1995.5 5714.45Q1995.5 5677.45 2020 5657.95Q2044.5 5638.45 2090.5 5638.45Q2137.5 5638.45 2162 5657.95Q2186.5 5677.45 2186.5 5714.45Q2186.5 5751.45 2162 5770.95Q2137.5 5790.45 2090.5 5790.45ZM2231.5 6385.45 2404.5 6121.45 2233.5 5857.45H2418.5L2503.5 6047.45H2520.5L2604.5 5857.45H2790.5L2619.5 6121.45L2791.5 6385.45H2605.5L2520.5 6194.45H2503.5L2417.5 6385.45ZM3074.5 6399.45Q3006.5 6399.45 2955 6380.95Q2903.5 6362.45 2868 6327.95Q2832.5 6293.45 2814.5 6243.95Q2796.5 6194.45 2796.5 6131.45Q2796.5 6070.45 2814 6017.45Q2831.5 5964.45 2865.5 5925.45Q2899.5 5886.45 2949.5 5864.95Q2999.5 5843.45 3063.5 5843.45Q3127.5 5843.45 3176 5864.45Q3224.5 5885.45 3256 5925.95Q3287.5 5966.45 3301 6023.45Q3314.5 6080.45 3308.5 6152.45L2901.5 6156.45V6071.45L3210.5 6067.45L3160.5 6109.45Q3167.5 6060.45 3155.5 6028.95Q3143.5 5997.45 3119.5 5982.45Q3095.5 5967.45 3065.5 5967.45Q3030.5 5967.45 3004.5 5986.45Q2978.5 6005.45 2964.5 6040.95Q2950.5 6076.45 2950.5 6127.45Q2950.5 6209.45 2984.5 6246.45Q3018.5 6283.45 3074.5 6283.45Q3100.5 6283.45 3118 6276.45Q3135.5 6269.45 3146.5 6257.95Q3157.5 6246.45 3163.5 6231.45Q3169.5 6216.45 3172.5 6202.45L3314.5 6228.45Q3308.5 6264.45 3292.5 6295.45Q3276.5 6326.45 3248 6349.95Q3219.5 6373.45 3176.5 6386.45Q3133.5 6399.45 3074.5 6399.45ZM3394.5 6385.45V5669.45H3553.5V6385.45ZM3880.5 6399.45Q3827.5 6399.45 3784 6389.95Q3740.5 6380.45 3708 6360.95Q3675.5 6341.45 3655.5 6313.95Q3635.5 6286.45 3630.5 6249.45L3754.5 6204.45Q3760.5 6225.45 3777 6243.95Q3793.5 6262.45 3821.5 6272.95Q3849.5 6283.45 3889.5 6283.45Q3928.5 6283.45 3951 6272.45Q3973.5 6261.45 3973.5 6238.45Q3973.5 6223.45 3961.5 6213.95Q3949.5 6204.45 3925.5 6196.95Q3901.5 6189.45 3863.5 6181.45Q3823.5 6172.45 3784 6161.45Q3744.5 6150.45 3711.5 6131.95Q3678.5 6113.45 3659 6083.95Q3639.5 6054.45 3639.5 6009.45Q3639.5 5959.45 3666 5922.45Q3692.5 5885.45 3744.5 5864.45Q3796.5 5843.45 3868.5 5843.45Q3933.5 5843.45 3984 5860.95Q4034.5 5878.45 4067.5 5911.95Q4100.5 5945.45 4109.5 5995.45L3979.5 6034.45Q3975.5 6011.45 3961 5994.45Q3946.5 5977.45 3923 5968.45Q3899.5 5959.45 3868.5 5959.45Q3830.5 5959.45 3809.5 5971.45Q3788.5 5983.45 3788.5 6003.45Q3788.5 6019.45 3802.5 6029.95Q3816.5 6040.45 3843 6047.45Q3869.5 6054.45 3906.5 6062.45Q3945.5 6070.45 3983.5 6080.95Q4021.5 6091.45 4053.5 6109.45Q4085.5 6127.45 4104 6156.45Q4122.5 6185.45 4122.5 6230.45Q4122.5 6282.45 4094.5 6320.45Q4066.5 6358.45 4012.5 6378.95Q3958.5 6399.45 3880.5 6399.45Z"/></svg>
