<svg xmlns="http://www.w3.org/2000/svg" viewBox="-90 -110 180 310" role="img" aria-label="A child carrying something"><defs><symbol id="f-smile" overflow="visible"><circle cx="-29" cy="17" r="8" fill="#EE5A36" fill-opacity=".4"/><circle cx="29" cy="17" r="8" fill="#EE5A36" fill-opacity=".4"/><circle cx="-16" cy="2" r="6" fill="#1D2940" /><circle cx="16" cy="2" r="6" fill="#1D2940" /><circle cx="-14" cy="0" r="2" fill="#FFFFFF" /><circle cx="18" cy="0" r="2" fill="#FFFFFF" /><path d="M-11 19 Q0 28 11 19" fill="none" stroke="#1D2940" stroke-width="4.5" stroke-linecap="round" stroke-linejoin="round" /></symbol><symbol id="k-sam-carry" overflow="visible"><rect x="-29" y="114" width="25" height="62" rx="12" fill="#3D86D8" /><rect x="4" y="114" width="25" height="62" rx="12" fill="#3D86D8" /><ellipse cx="-18" cy="178" rx="19" ry="10" fill="#1D2940" /><ellipse cx="18" cy="178" rx="19" ry="10" fill="#1D2940" /><rect x="-38" y="38" width="76" height="90" rx="30" fill="#2FA36B" /><path d="M-32 56 L-16 94" fill="none" stroke="#2FA36B" stroke-width="22" stroke-linecap="round" stroke-linejoin="round" /><circle cx="-16" cy="94" r="12" fill="#E0AC80" /><path d="M32 56 L16 94" fill="none" stroke="#2FA36B" stroke-width="22" stroke-linecap="round" stroke-linejoin="round" /><circle cx="16" cy="94" r="12" fill="#E0AC80" /><circle cx="-45" cy="8" r="10" fill="#E0AC80" /><circle cx="45" cy="8" r="10" fill="#E0AC80" /><circle cx="0" cy="0" r="46" fill="#E0AC80" /><path d="M-47 8 C-52 -36 -22 -56 4 -54 C34 -52 52 -32 47 8 C44 -8 38 -18 30 -24 C18 -12 -8 -10 -30 -20 C-38 -12 -44 -2 -47 8Z" fill="#A0522D" /></symbol></defs><g transform="translate(0 8) scale(1 1)"><use href="#k-sam-carry"/><use href="#f-smile"/></g></svg>